<svg width="1440" height="1238" viewBox="0 0 1440 1238" fill="none" xmlns="http://www.w3.org/2000/svg">
<g clip-path="url(#clip0_336_146)">
<path d="M-157 -2C1.75624 253.978 647 874 1599 874M225 -402C383.756 -146.022 751 402 1853 370M-313 506C-154.244 761.978 519 1414 1627 1362" stroke="#95A863" stroke-opacity="0.2" stroke-width="5"/>
<path d="M1223.02 -342C967.044 -183.244 331.022 562 331.022 1394M1167.02 -342C1279.02 -37.9999 1255.02 718 539.022 1550M791.02 -306C563.021 -194 -184.98 314 115.02 1394M1251 -246C1459 -82 1735 978 943.001 1426" stroke="#151515" stroke-opacity="0.2" stroke-width="3"/>
<path d="M880 1560L1390 0" stroke="#95A863" stroke-opacity="0.1" stroke-width="33"/>
<path d="M885.978 1373.35L654.879 7.99919" stroke="#6F93A8" stroke-opacity="0.1" stroke-width="30"/>
<path d="M-217 704L1655 1347" stroke="#9A4443" stroke-opacity="0.2" stroke-width="5"/>
<path d="M-135 947L1484 371" stroke="#9A4443" stroke-opacity="0.2" stroke-width="5"/>
<path d="M246.001 1297L10.0902 -169.881" stroke="#9A4443" stroke-opacity="0.2" stroke-width="5"/>
</g>
<defs>
<clipPath id="clip0_336_146">
<rect width="1440" height="1238" fill="white"/>
</clipPath>
</defs>
</svg>
